<svg width="32" height="32" viewBox="0 0 32 32" fill="none" xmlns="http://www.w3.org/2000/svg">
  <!-- Document background -->
  <rect x="4" y="2" width="24" height="28" rx="2" fill="#ffffff" stroke="#374151" stroke-width="1"/>
  
  <!-- Header section (like a resume header) -->
  <rect x="6" y="4" width="20" height="4" rx="1" fill="#10b981"/>
  
  <!-- Name/title lines -->
  <rect x="8" y="5" width="12" height="1" fill="#ffffff"/>
  <rect x="8" y="6.5" width="8" height="0.7" fill="#ffffff"/>
  
  <!-- Content lines (representing resume sections) -->
  <rect x="6" y="10" width="16" height="1" fill="#6b7280"/>
  <rect x="6" y="12" width="20" height="0.7" fill="#9ca3af"/>
  <rect x="6" y="13.5" width="18" height="0.7" fill="#9ca3af"/>
  <rect x="6" y="15" width="14" height="0.7" fill="#9ca3af"/>
  
  <!-- Second section -->
  <rect x="6" y="18" width="12" height="1" fill="#6b7280"/>
  <rect x="6" y="20" width="18" height="0.7" fill="#9ca3af"/>
  <rect x="6" y="21.5" width="16" height="0.7" fill="#9ca3af"/>
  <rect x="6" y="23" width="20" height="0.7" fill="#9ca3af"/>
  
  <!-- Third section -->
  <rect x="6" y="26" width="10" height="1" fill="#6b7280"/>
  <rect x="6" y="28" width="14" height="0.7" fill="#9ca3af"/>
</svg> 